<svg xmlns="http://www.w3.org/2000/svg" viewBox="0 0 1024 1024" fill="none">
  <rect width="1024" height="1024" fill="#c0613c"/>

  <!-- T-lid (open chest top) -->
  <path fill="#fdf6ef" d="M192 268h640c22 0 40 18 40 40v72c0 22-18 40-40 40H192c-22 0-40-18-40-40V308c0-22 18-40 40-40z"/>
  <path fill="#f0c4b4" d="M192 348h640v32H192z"/>

  <!-- T-stem (chest body) -->
  <path fill="#fdf6ef" d="M352 420h320c22 0 40 18 40 40v296c0 22-18 40-40 40H352c-22 0-40-18-40-40V460c0-22 18-40 40-40z"/>

  <!-- Inner opening -->
  <path fill="#f5e6dc" d="M392 420h240v48H392z"/>

  <!-- Saved card inside stem -->
  <rect x="412" y="500" width="200" height="150" rx="18" fill="#ffffff"/>
  <circle cx="448" cy="542" r="9" fill="#c0613c"/>
  <rect x="468" y="534" width="110" height="14" rx="7" fill="#e8e6e0"/>
  <rect x="432" y="572" width="150" height="14" rx="7" fill="#e8e6e0"/>
  <rect x="432" y="608" width="95" height="14" rx="7" fill="#e8e6e0"/>

  <!-- Chest feet -->
  <rect x="352" y="716" width="56" height="40" rx="12" fill="#e8a88a"/>
  <rect x="616" y="716" width="56" height="40" rx="12" fill="#e8a88a"/>

  <!-- Latch on lid -->
  <rect x="462" y="248" width="100" height="32" rx="16" fill="#e8a88a"/>
  <circle cx="512" cy="264" r="9" fill="#c0613c"/>
</svg>
