<svg xmlns="http://www.w3.org/2000/svg" viewBox="0 0 1024 1024" fill="none">
  <rect width="1024" height="1024" fill="#c0613c"/>
  <path fill="#fdf6ef" d="M160 240h704c35 0 64 29 64 64v96c0 35-29 64-64 64H608v352c0 35-29 64-64 64H480c-35 0-64-29-64-64V464H160c-35 0-64-29-64-64V304c0-35 29-64 64-64z"/>
  <path fill="#f0c4b4" d="M160 392h704v24H160z"/>
  <rect x="472" y="228" width="80" height="28" rx="14" fill="#e8a88a"/>
  <path fill="#c0613c" d="M500 548c-22 0-40 18-40 40v8c0 12 10 22 22 22h40c12 0 22-10 22-22v-8c0-22-18-40-40-40z"/>
  <rect x="504" y="596" width="16" height="44" rx="8" fill="#c0613c"/>
</svg>
