<svg xmlns="http://www.w3.org/2000/svg" viewBox="0 0 1024 1024" fill="none">
  <path fill="#fdf6ef" fill-rule="evenodd" d="
    M148 228h728c40 0 72 32 72 72v104c0 40-32 72-72 72H604v368c0 40-32 72-72 72H420c-40 0-72-32-72-72V476H148c-40 0-72-32-72-72V300c0-40 32-72 72-72z
    M148 384h728v20H148z
    M476 384h72v52c0 12-10 22-22 22h-28c-12 0-22-10-22-22V384z
    M478 560
      a34 34 0 1 1 68 0
      a34 34 0 1 1 -68 0
      z
    M490 578h44v48c0 8-6 14-14 14h-16c-8 0-14-6-14-14V578z
  "/>
</svg>
